<svg xmlns="http://www.w3.org/2000/svg" viewBox="0 12.199999809265137 82.5 40.29999923706055" data-asc="1.036" width="82.5" height="40.29999923706055"><defs/><g fill="#7c5cff"><g transform="translate(0, 0)"><path d="M0 43.60L2.50 43.60L2.50 21.10L0 21.10L0 12.90L22.95 12.90Q29.40 12.90 32.80 15.55Q36.20 18.20 36.20 24.15Q36.20 27.50 34.85 29.95Q33.50 32.40 31 33.35L31.05 33.85Q35.85 34.60 35.85 39.75L35.85 43.60L38.20 43.60L38.20 51.80L22.35 51.80L22.35 40.05Q22.35 38.10 21.78 37.10Q21.20 36.10 19.98 35.75Q18.75 35.40 16.50 35.40L16.50 43.60L19.80 43.60L19.80 51.80L0 51.80L0 43.60M19.20 29.30Q20.65 29.30 21.38 28.53Q22.10 27.75 22.10 26.10L22.10 24.30Q22.10 22.65 21.38 21.88Q20.65 21.10 19.20 21.10L16.50 21.10L16.50 29.30L19.20 29.30ZM55.50 52.50Q50.70 52.50 46.42 51.68Q42.15 50.85 39.85 49.80L39.85 39.90L50.85 39.90Q50.85 41.45 51.55 42.15Q52.25 42.85 54.10 42.85Q55.65 42.85 56.33 42.38Q57 41.90 57 40.95Q57 40.15 56.35 39.58Q55.70 39 54.10 38.40L49.80 36.90Q44.25 34.80 41.83 31.95Q39.40 29.10 39.40 24.25Q39.40 18.35 43.27 15.28Q47.15 12.20 56.20 12.20Q60.55 12.20 64.38 13.08Q68.20 13.95 70.55 15.40L70.55 24.35L60.55 24.35Q60.55 21.85 57.45 21.85Q55.95 21.85 55.33 22.23Q54.70 22.60 54.70 23.55Q54.70 24.40 55.42 24.90Q56.15 25.40 57.80 25.95L62.15 27.45Q67.45 29.25 69.88 32.13Q72.30 35 72.30 39.65Q72.30 46 68.03 49.25Q63.75 52.50 55.50 52.50ZM74.70 51.80L74.70 43.60L82.50 43.60L82.50 51.80L74.70 51.80Z"/></g></g></svg>